<svg version="1.2" baseProfile="tiny" xmlns="http://www.w3.org/2000/svg" width="192" height="68" overflow="visible" xml:space="preserve"><path fill-rule="evenodd" fill="#1A1A18" d="M16.4 52.5s-.3-1.2.1-1.6c.3-.3 6.4-.8 7.8-.8 1.5 0 1.7 0 2 .4.3.4-.5.4-1.5.4s-2.4.1-4.6.8-2.9 1.2-2.9 1.2c-.5.2-.9.2-.9-.4M21 35.6c.9-.4 1.1-.7 1.1-1.2s-.5-2.1-.7-2.1c-.3 0-.3.1-.5.8-.4 1.1-2.5 3.5-2.5 3.6s.1.1.3.1c-.1 0 1.9-.9 2.3-1.2zm-2.8-10.2c0-.5-.3-1.6.1-1.6.3.1.8 1.1 1.1 1.5.3.4.4.9.1.9-.3.1-.5.1-.5.1-.6.1-.8-.4-.8-.9zm4.1 1.9s-.4-.1-.5-.5c-.1-.4-.3-.5-.5-.5-.3 0-.5.1-.7-.1 0-.3 0-.4-.1-.7-.1-.1-.5-.5-.4-.8.1-.3.3-.4.7-.1.4.1.5.5.9.5s.5.4.7.7c.1.3.7.5.7.8 0 .3.1.5 0 .7-.1.1-.4.3-.5.3 0-.3-.3-.3-.3-.3zm-2.8-3.2c-.1 0-.5-1.2-.5-2 0-.7-.5-.7-.3-1.3.3-.5.5-1.3.9-1.5s.7.1.4.5-.5 1.3-.4 2.1.7 1.3.7 1.7c0 .4-.1.5-.4.5-.3.3-.4 0-.4 0zm.3-8.2c.1-.9-.1-1.5.5-2.1.5-.7 1.5-1.2 1.5-1.2s.4-.1.5.4c0 .5-.1 1.2-.7 1.6-.5.4-.9.8-1.1 1.5-.1.7-.3 1.1-.4 1.1-.6-.1-.5-.6-.3-1.3zm4.5-3.8s-.1-.4.5-.5c.7-.3 1.2-.1 1.3-.3.1-.1.7.3.7.5-.1.3-.7.4-1.1.4s-.7 0-.8.1c-.1.1-.5 0-.5 0-.1-.1-.1-.2-.1-.2zm8.2.2s.7.1.9.7c.3.7.1.7.7 1.2.5.4.3.7.8.9.5.3.7.5.8.9.1.4.4.8.7.7.3 0 .3-.1 0-.8-.4-.7-.7-2.3-.9-2.7s-.7-.8-1.3-1.1c-.5-.3-1.2-.5-1.5-.4-.3.1-.3.1-.3.3 0 .2.1.3.1.3zm4.7 0c.8.7 1.1.8 1.2 1.5.1.7.5 1.1.5 1.1s.5.4.5 0-.5-1.6-1.1-2.3c-.5-.5-1.5-1.2-1.7-1.5-.3-.3-.5-.4-.7-.3-.6.3 1 1.3 1.3 1.5zm1.3 14.6c1.3-.7 2.7-.8 2.8-1.9.3-.9-.1-1.5-.5-2.3s-.7-1.9-.3-3.1c.4-1.2.4-1.5.8-1.5s.4.5.4.9 0 .9.4 1.7c.3.7.7 2.1 1.2 2.5.5.4.8 1.1.7 1.6-.1.4-.1 1.2-1.9 2-1.7.8-2.8.8-3.6 1.2-.8.5-1.1.7-1.1.9s-.3.5-.5.5c-.3-.1-.1-.5-.1-.7.4-.6.7-1.2 1.7-1.8zm-4.8 1.9s0-.3-.1-.9c-.1-.7.3-1.2.3-2 0-.9 0-1.7.3-2 .3-.3.9-.9 1.1-.9.3-.1.4.1.3.4-.1.4-.7.5-.8 1.1-.1.5 0 .9.1 1.2.1.3.3.5 0 1.1-.3.5-.5.7-.7 1.1-.1.4.4.7.4.8s-.5.5-.7.4l-.2-.3zm-3.5-2.3s.4-.4.5-.9.1-1.1.5-1.2c.4-.1.5 0 .9-.3.3-.1.7 0 .9 0 .1 0 .1.5-.1.7s.5.5.3.8c-.3.1-1.3-.3-1.6.3-.3.5-.4.9-.8.9-.6 0-.6-.1-.6-.3zm1.8 6.2c0-.8-.3-1.5.3-1.6.4-.1.7.1.8.8 0 .5-.1 1.6-.3 2.7-.1 1.1-.7 1.9-.8 2.3-.1.3-.5.5-.7.4s-.1-.4-.1-.5c.2-1.2.8-3 .8-4.1zm1.8-.6c-.5-1.2-.9-1.7-.4-2.1.5-.4.9-.5 1.2-.5.3 0 .5.4.5.8-.1.4.5.9.8 1.5.3.4.9 1.3 1.3 1.7.4.4.7.7 1.1.8.4.1.4.5-.1.5-1.9.2-3.6-.9-4.4-2.7zm9 8.5c.3-.5 0-2.8 0-3.5s.5-1.5.4-2.1c-.1-.7-.5-1.1.1-.8.7.3.4.8.4 1.5s-.7 1.7-.3 1.7c.4 0 .8-.3 1.1-1.1.4-.8.5-1.7.4-2-.1-.3.5-.5.7 0 .1.5 0 1.5-.7 2.1-.5.7-1.2 1.2-1.3 2.1-.1.7.5 2.8.1 2.9-.5.3-1.3 0-.9-.8zm6.1.1s.3-1.6 1.6-2.8c1.3-1.3 2-2.5 2.1-3.9.5-4 1.5-2.8 1.2-1.1-.1 1.1-.4 2.1-.1 2.9s.3 2.4-.1 2.4-.5-.1-.5-.5c0-.5-.1-.7-.8-.1-.3.3-2.8 3.2-2.8 3.2-.4.2-.5.1-.6-.1zm-20 6.1c-1.1-2.8-.5-4.4-.3-4.7.3-.3.1-.4 1.2-.3 1.1.1 7.8.1 11.8.3 4.2.1 8.2.7 8.2.7s.8 0 .7.4c-.1.4-1.3 1.1-1.7 2.7-.4 1.6-.3 3.3-.1 3.9.1.5.5 1.1-.8.8s-8.6-.8-11.3-.9c-3.6 0-6.1 1.6-7.7-2.9zm5.3 3.7c.5-.1 5.4.1 7.5.3 2 .1 7 .8 7.8.8.8 0 1.7-.1 1.7.1 0 .3 0 1.3-.4 1.3s-7.2-1.2-11.5-1.6c-1-.1-6.8-.4-5.1-.9zm15.5-.1s-.8-1.2-.5-2.9c.5-4.6 4.4-5.2 4.2-1.7 0 .8-.4 2.8-1.1 3.3-1.9 1.5-2.4-1.6-1.7-2.9 1.6-2.9 1.9-.3 1.5.3-.3.5-.7 1.2-.8.9-.3-.3-.4-.3-.4.3s.4 1.2 1.1.4.9-1.7.9-2.7-.4-1.6-1.2-1.3c-.8.3-1.6 1.7-1.9 3.2-.7 3.6 1.9 2.3 1.9 3.1 0 .8-1.8.4-2 0zm-20.5-9.3s.5-1.7 1.7-2.4 1.7-1.1 2.1-.7.5 1.9.5 2.4.4.7-.7.7c-1 .2-3.6 0-3.6 0zm-4.9 4.6c.5-.1.4-.7.1-.7-.3 0-.4-.1-.5 0-.9-.1-.7.9.1.8.2-.1.3-.1.3-.1zm.8 1.3c.5-.1.4-.7.1-.7-.3 0-.4-.1-.5 0-.9-.1-.7.9.1.8.1-.1.2-.1.3-.1zm.3 1.5c.5-.1.5-.7.1-.8-.3-.1-.5-.1-.7 0-.4 0-.7.1-.7.3 0-.1-.1-.1-.1-.3-.7-.9-1.3-3.3-1.6-4.4-.1-1.1-.7-.9-1.5-.8-.9 0-6.7.3-7.9.9-1.2.7-1.2 2.1-.4 4.3.7 2.1 2.7 2.5 2.7 2.5s1.2 0 4.4-.5c2.3-.4 4.7-.3 5.6-.1.1.1.4.1.7.1h.3c.5-.1.5-.7.1-.8-.3-.1-.5-.1-.7 0-.3 0-.5 0-.5.1-.1-.1-.3-.3-.4-.5h.3c.2.1.3.1.3 0zm2 2.3c.4-.1.4-.5.1-.5H27c-.8-.1-.5.7 0 .5h.4zm1.4.6c.4-.1.4-.5.1-.5h-.5c-.8-.1-.5.7 0 .5h.4zm-4.7-7.1c.5-.1.4-.7.1-.7-.3 0-.4-.1-.5 0-.9-.1-.7.9.1.8 0-.1.1-.1.3-.1zm-.3-2.4c.1 0 .3.1.3.3 0 .1-.1.3-.3.3-.1 0-.3-.1-.3-.3 0-.1.2-.3.3-.3zm-.4 11.3s-1.1-.3-.5-.7c.5-.4.4-.5.9-.4.5.1.7.5.4.8-.3.4-.4.4-.8.3zm-2.6 1.7c.1-.5.3-.9.9-.9.7 0 .8 0 .7.4 0 .5.1 1.2 0 1.3-.3.3-1.7-.1-1.6-.8zm2.3.6c.1-.7 0-.9.4-1.2.4-.3.7 0 .8.5.1.4.5.9.8.8.3-.1.1-.5-.1-1.1-.1-.4 0-.7.5-.8.5-.1.8 0 .9.4.1.3.3 1.1-.1 1.3-.4.3-1.1.5-1.5.7-.3.2-1.9.4-1.7-.6zm12.6-1.8s-.5-.1-.1-.8c.4-.7.1-.9.7-1.1.4-.1.9-.3.7.7-.3.8-.3 1.3-.5 1.3-.4.1-.8-.1-.8-.1zm-.4 1.4s.4.1.9-.1c.5-.3.5-.5.5-.5s.1-.4-.4-.3c-.5.1-.9.3-1.1.4 0 .1.1.5.1.5zm-.1 3.3s-.8-.1-1.3-.7c-.5-.5-.1-.8.3-1.1.3-.3 1.1-.3 1.2.3.3.5.3 1.2.1 1.3.1.2-.3.2-.3.2zm2 .5s-.8 0-.9-.5c-.1-.5.1-.5.1-.9.1-.4.5-.4.7-.3.1.1.1.9.4 1.1.3.3.4.5.3.7-.2-.1-.6-.1-.6-.1zm2.3-1c.3-.3.1-.8-.1-1.2-.3-.4-.5-.7-.8-.5s-.4.5-.4.9 0 .5.1.7c.2.3.9.3 1.2.1zm1.6-1.6s-.8-1.6-.7-2.8c.1-1.1.1-1.5.9-1.3.8 0 1.1 0 1.1 1.1-.1 1.1-.7 1.5-.7 2.1s.1.8-.1.9c-.3.1-.5 0-.5 0zm1.5 1s.8.3 1.3.3.5-.1.3-.8c-.1-.5-.3-1.2-.8-1.1-.5.1-.8.1-.9.7-.2.7.1.9.1.9zm2.8.4s-.4-.1-.5-.8c0-.7.1-1.1.7-1.1.4 0 .9.3.9.7 0 .4.8.7.4.9-.5.4-.7.4-.9.4-.4.1-.6-.1-.6-.1zm-1.9-4.9c.3-.1.4.1.4.4s-.1.4-.3.4c-.2 0-.5-.7-.1-.8zm.9 2s-.4-.4-.3-.7c.1-.3.7-.1.8 0 .3.1.4.4.1.4-.2.2-.6.3-.6.3zm3.1.8c.3 0 .5.1.5.4 0 .3-.3.4-.5.4-.3 0-.5-.1-.5-.4 0-.1.2-.4.5-.4zM45 18.1s4.3 2 5.8 3.5c1.5 1.6 2.4 2.5 3.5 4.8s2 4.4 1.7 6.3c-.4 1.9-1.1 4.6-1.3 5.1-.3.5-.7 1.5-.7 2.3s.1 1.3-.3 1.3c-.3 0-.7-1.3-.8-2-.1-.7-.3-1.3-.5-.9-.4.5-1.5 1.6-2 2-.5.4-.9.9-.7 1.3.3.4 1.6.7 2.3.5.7 0 1.7.9 1.9 2.4.1 1.5-.3 2.5-.9 4.6-.7 2.1-1.1 3.5-.9 3.8 0 .3-.1.8-1.1.7-.9-.1-2.7-.9-3.1-.4-.5.5-.1 1.3.3 2s.7 1.2.5 1.6c-.1.4-1.3 1.7-2.4 1.7-1.1 0-2.7-.1-3.3-.4s-1.5-1.1-1.5-1.1-.3-.3-.4.1c-.1.4-.5 1.2-1.2 1.5-.7.3-1.3.3-1.9.5-.5.3-1.1.4-1.3.1-.4-.1-.1-.1-.7-.3-.7 0-1.3-.3-1.6-.4-.3-.1-1.1-.7-1.2-.9s-.4-1.5 0-2.1c.5-.7 1.2-1.5 1.3-2.1s.5-1.9-.1-1.7-1.1.8-2.1.9c-1.1.3-1.9.3-3.1-.4-1.2-.5-1.7-1.1-1.9-.7s0 .7.1 1.3c.1.7.3.9 0 1.9-.8 2.7-3.8 2.5-5.8 1.6-.9-.4-1.5-1.1-1.6-1.5-.1-.4.1-1.1.5-1.5.4-.4.7-.8.4-1.2-.1-.3-.5-.4-1.1 0-.5.3-2.3 1.1-2.9 1.5-.5.4-.9.5-.9 0 0-.4 0-.4-.3-.9-.1-.5-.1-.9 0-1.2.1-.3.1-.5-.4-.7-.4-.1-2.4-.9-3.3-2.7-.9-1.9-.8-3.8-.4-4.6.4-.8 1.2-.9 2.3-1.2 1.1-.1 7.5-.8 7.5-.8l.7-.1s0-2.8-.1-4.2c0-1.3-.1-1.5-.4-1.3-.3.1-2.3 1.3-3.5 1.5-1.2.3-1.9.4-1.9 0s.4-.8 1.1-1.3c.7-.5 1.6-1.5 2.3-2.7.7-1.2 1.1-2.7.9-3.1 0-.4-.7-.9-.8-1.6s0-1.1-.4-1.1c-.3 0-1.2 0-1.5-.5-.3-.5-.8-.7-.8-1.3.1-.7.4-2.4.3-3.1 0-.7-.3-1.3-.3-2s-.3-2.3.5-3.3c.7-1.2.9-2.7 1.1-3.5 0-.8.8-2.5 2.8-3.8C23.5 9.1 25 9 26.1 8.8c1.1 0 2.8.8 3.8.4 1.5-.3 2.1-.7 2.9-.7.8 0 3.6-.3 6 1.1 2.4 1.3 3.1 3.1 3.3 4.3.4 1.1 1.1 2.4 1.7 3.2.8.7 1.2 1 1.2 1z"/><path fill-rule="evenodd" fill="#1A1A18" d="M34 3.1c17.2 0 31.1 13.9 31.1 31.1S51.1 65.4 34 65.4 2.9 51.4 2.9 34.3 16.8 3.1 34 3.1M33.8.7c18.4 0 33.4 14.9 33.4 33.4s-15 33.4-33.4 33.4S.5 52.4.5 34 15.4.7 33.8.7z"/><path fill="#1A1A18" d="m18.6 48.2-.4-4.2.8-.1.1 1.9 1.5-2 1.1-.1-1.3 1.7 1.9 2.4-1.2.2-1.3-1.9-.7.8.1 1.2-.6.1zm-2.2-1.4-.7-1.5-.4 1.6 1.1-.1zm1.6 1.4-.9.1-.4-.9-1.6.1-.3.9-.9.1 1.2-4.3.9-.1 2 4.1z"/><path fill="none" d="m18.6 48.2-.4-4.2.8-.1.1 1.9 1.5-2 1.1-.1-1.3 1.7 1.9 2.4-1.2.2-1.3-1.9-.7.8.1 1.2-.6.1zm-2.2-1.4-.7-1.5-.4 1.6 1.1-.1zm1.6 1.4-.9.1-.4-.9-1.6.1-.3.9-.9.1 1.2-4.3.9-.1 2 4.1z"/><path fill="#1A1A18" d="m37.7 48 .1-4.2h.8v1.9l1.7-1.7h1.1l-1.6 1.6 1.6 2.5h-1.1l-1.1-2-.7.7V48h-.8zm-3.9 0 .1-4.2H37v.7h-2.3v.9h2v.7h-2v1.1H37v.7l-3.2.1zm-2.5-.2v-3.5h-1.2v-.7h3.3v.7h-1.2v3.5h-.9z"/><path fill="none" d="m37.7 48 .1-4.2h.8v1.9l1.7-1.7h1.1l-1.6 1.6 1.6 2.5h-1.1l-1.1-2-.7.7V48h-.8zm-3.9 0 .1-4.2H37v.7h-2.3v.9h2v.7h-2v1.1H37v.7l-3.2.1zm-2.5-.2v-3.5h-1.2v-.7h3.3v.7h-1.2v3.5h-.9z"/><path fill="#191918" d="m18.8 48.1-.4-4.2.8-.1.1 1.9 1.5-2 1.1-.1-1.3 1.7 1.9 2.4-1.1.1L20 46l-.7.8.1 1.2-.6.1zm-2.1-1.5-.7-1.5-.4 1.6 1.1-.1zm1.7 1.6-.9.1-.4-1.1-1.6.1-.3.9-.9.1 1.2-4.3.9-.1 2 4.3zM38.1 48l.1-4.2h.8v1.9l1.7-1.7h1.1l-1.6 1.6 1.6 2.5h-1.1l-1.2-2-.7.7V48h-.7zm-3.9 0 .1-4.2h3.1v.7h-2.3v.9h2v.7h-2v1.1h2.3v.7l-3.2.1zm-2.6-.2v-3.5h-1.2v-.7h3.3v.7h-1.2v3.5h-.9z"/><g fill="#1A1A18" stroke="#000" stroke-width=".25" stroke-miterlimit="10"><path d="M90.7 27.5h-6l-.8 2.8h-5.5L84.8 13h5.8L97 30.3h-5.6l-.7-2.8zm-1.1-3.8-1.9-6.2-1.9 6.2h3.8zM98.8 13h5.4v6.6l5.6-6.6h7.1l-6.3 6.6 6.6 10.7h-6.6l-3.6-7.1-2.8 2.8v4.2h-5.4V13zM119.2 13h5.4v17.3h-5.4V13zM128.3 13h5l6.6 9.5V13h5.1v17.3h-5.1l-6.4-9.5v9.5h-5.1V13zM78.9 37.1h16.2v4.3h-5.5v13h-5.4v-13h-5.5v-4.3h.2zM97.5 37.1h14.3v3.8h-9v2.7h8.3V47h-8.3v3.3h9.2v3.9H97.5V37.1zM114.9 37.1h5.4v6.6l5.6-6.6h7.1l-6.3 6.6 6.6 10.7h-6.6l-3.6-7.1-2.8 2.8v4.2h-5.4V37.1zM134.1 48.6l5.1-.3c.1.8.3 1.5.7 1.9.5.7 1.3 1.1 2.4 1.1.8 0 1.3-.1 1.7-.5.4-.4.7-.8.7-1.2 0-.4-.1-.8-.5-1.2s-1.3-.7-2.7-.9c-2.3-.5-4-1.2-5-2.1-1.1-.9-1.5-2-1.5-3.3 0-.9.3-1.7.8-2.5s1.3-1.5 2.3-1.9c1.1-.4 2.4-.7 4.3-.7 2.1 0 3.9.4 5.1 1.2 1.2.8 1.9 2.1 2 3.9l-5.1.3c-.1-.8-.4-1.3-.8-1.7-.4-.4-1.1-.5-1.7-.5s-1.1.1-1.3.4c-.3.3-.5.5-.5.9 0 .3.1.5.4.8.3.3.8.4 1.7.7 2.3.5 4 1.1 5 1.5.9.4 1.7 1.2 2.1 1.9.4.7.7 1.6.7 2.5 0 1.1-.3 2.1-.9 3.1-.7.9-1.5 1.6-2.5 2.1s-2.5.7-4.2.7c-2.9 0-5-.5-6.2-1.7-1.3-1.5-2-2.7-2.1-4.5zM151.2 37.1h16.2v4.3h-5.5v13h-5.4v-13H151v-4.3h.2zM169.7 37.1h4.8v3.2h-4.8v-3.2zm0 4.7h4.8v12.5h-4.8V41.8zM177.9 37.1h5.4v13h8.3v4.3h-13.7V37.1z"/></g></svg>