<svg xmlns="http://www.w3.org/2000/svg" width="198.629" height="65.912" viewBox="0 0 198.629 65.912">
  <g id="Group_6" data-name="Group 6" transform="translate(-80 -44.939)">
    <path id="Path_1" data-name="Path 1" d="M30.013,31.913H21.9c-.988,0-1.422.385-1.735,1.541H19.39v-7.66h.771c.313,1.18.747,1.541,1.735,1.541H37.505v.771c-1.157.313-1.566.772-1.566,1.759V36.61c0,.988.385,1.445,1.566,1.758v.6c-6.239,3.565-12.31,5.347-18.163,5.347q-7.985,0-13.008-3.782Q.012,35.767,0,27.288A15.468,15.468,0,0,1,5.636,14.714q5.349-4.444,14.213-4.432a24.859,24.859,0,0,1,5.3.53,35.918,35.918,0,0,1,5.685,1.734,7.522,7.522,0,0,0,2.336.651,2.063,2.063,0,0,0,1.181-.554l.674.361-3.854,7.877-.7-.361a2.835,2.835,0,0,0-.217-1.132,2.889,2.889,0,0,0-.867-.867,12.52,12.52,0,0,0-4.312-1.879,20.012,20.012,0,0,0-5.372-.795,12.721,12.721,0,0,0-8.551,2.89,10.821,10.821,0,0,0-3.83,8.647,10.578,10.578,0,0,0,3.734,8.408,13.384,13.384,0,0,0,9.009,2.939,23.734,23.734,0,0,0,5.372-.627,17.218,17.218,0,0,0,4.576-1.711Z" transform="translate(80 43.159)" fill="#fff"/>
    <path id="Path_2" data-name="Path 2" d="M85.441,11.61V30.038c0,3.492-.65,6.095-1.927,7.829q-3.469,4.66-14.333,4.673c-5.227,0-9.25-.843-12.02-2.53a7.8,7.8,0,0,1-3.372-4,17.592,17.592,0,0,1-.915-5.973V11.61c0-.987-.385-1.445-1.541-1.758V9.081H61.618v.772c-1.156.289-1.565.771-1.565,1.758v16.4a20.041,20.041,0,0,0,.313,4.215,4.871,4.871,0,0,0,1.181,2.264c1.541,1.639,4.167,2.458,7.9,2.458s6.383-.819,7.925-2.458a5.051,5.051,0,0,0,1.157-2.264,20.041,20.041,0,0,0,.313-4.215V11.61c0-.987-.385-1.445-1.541-1.758V9.081h9.684v.772c-1.156.313-1.541.771-1.541,1.758M64.484,0a3.082,3.082,0,0,1,2.289.915,3.218,3.218,0,0,1,.915,2.312,2.955,2.955,0,0,1-.915,2.144,3.052,3.052,0,0,1-2.24.915,3.118,3.118,0,0,1-2.216-.915A3,3,0,0,1,61.4,3.156,2.962,2.962,0,0,1,62.292.963,3.124,3.124,0,0,1,64.484,0M74.1,0a3.049,3.049,0,0,1,2.24.915,3.045,3.045,0,0,1,.915,2.168,3.13,3.13,0,0,1-3.228,3.2,2.97,2.97,0,0,1-2.168-.915,3.112,3.112,0,0,1-.891-2.24A3,3,0,0,1,71.855.939,3.172,3.172,0,0,1,74.1,0" transform="translate(71.117 44.939)" fill="#fff"/>
    <path id="Path_3" data-name="Path 3" d="M108.917,21.339V41.332c0,.988.385,1.445,1.541,1.758v.772H100.8v-.772c1.156-.313,1.541-.77,1.541-1.758V13.487c0-.963-.385-1.421-1.541-1.734v-.771h11.176v.771c-.7.169-1.035.554-1.035,1.108a1.909,1.909,0,0,0,.674,1.277L129.754,33V13.487c0-.963-.385-1.421-1.541-1.734v-.771h9.659v.771c-1.156.313-1.541.771-1.541,1.734V41.332c0,.988.385,1.445,1.541,1.758v.772H127.514v-.772c.674-.144,1.011-.481,1.011-1.035,0-.313-.385-.891-1.18-1.686Z" transform="translate(62.556 43.038)" fill="#fff"/>
    <path id="Path_4" data-name="Path 4" d="M170.445,8.5q8.6,0,13.634,4.649A16.31,16.31,0,0,1,189.4,25.726a16.25,16.25,0,0,1-2.554,8.816q-4.985,7.985-16.355,8-8.528,0-13.562-4.649a16.247,16.247,0,0,1-4.094-5.95,17.132,17.132,0,0,1-1.23-6.431,16.817,16.817,0,0,1,2.53-9.034q4.841-7.841,16.308-7.973m.024,5.565a11.375,11.375,0,0,0-7.829,2.794,10.985,10.985,0,0,0-3.71,8.648,10.983,10.983,0,0,0,3.71,8.647,12.465,12.465,0,0,0,15.729,0,10.9,10.9,0,0,0,2.842-4.071,11.716,11.716,0,0,0,.867-4.432,10.984,10.984,0,0,0-3.71-8.792,11.76,11.76,0,0,0-7.9-2.794M165.675,0a3.124,3.124,0,0,1,2.289.915,3.221,3.221,0,0,1,.915,2.312,2.957,2.957,0,0,1-.915,2.144,3.055,3.055,0,0,1-2.24.915,3.12,3.12,0,0,1-2.217-.915,3,3,0,0,1-.915-2.216,2.959,2.959,0,0,1,.892-2.192A3.121,3.121,0,0,1,165.675,0m9.611,0a3.049,3.049,0,0,1,2.24.915,3.045,3.045,0,0,1,.915,2.168,3.13,3.13,0,0,1-3.228,3.2,2.971,2.971,0,0,1-2.168-.915,3.111,3.111,0,0,1-.891-2.24,3,3,0,0,1,.891-2.192A3.173,3.173,0,0,1,175.286,0" transform="translate(53.763 44.996)" fill="#fff"/>
    <path id="Path_5" data-name="Path 5" d="M214.045,38.115h17.1c.963,0,1.421-.386,1.733-1.541h.772v8.5h-.772c-.313-1.156-.77-1.541-1.733-1.541H202.386V41.848l19.126-25.774H205.06c-.988,0-1.446.361-1.759,1.517h-.771v-8.5h.771c.361,1.181.771,1.565,1.759,1.565h28.328v1.374Z" transform="translate(44.976 43.366)" fill="#fff"/>
    <g id="Group_5" data-name="Group 5" transform="translate(108.822 99.14)">
      <path id="Path_6" data-name="Path 6" d="M34.854,62.471h4.063v1.195H37.542v7.17H36.228v-7.17H34.854Z" transform="translate(-34.854 -60.882)" fill="#fff"/>
      <path id="Path_7" data-name="Path 7" d="M41.776,66h1.8v1.195h-1.8V69.64h2.271v1.2H40.462V62.471h3.585v1.2H41.776Z" transform="translate(-35.825 -60.882)" fill="#fff"/>
      <path id="Path_8" data-name="Path 8" d="M47.5,67.5l-.406.765v2.568H45.78V62.471H47.1v3.644l1.721-3.644H50.13L48.3,66.2l1.828,4.636H48.78Z" transform="translate(-36.745 -60.882)" fill="#fff"/>
      <path id="Path_9" data-name="Path 9" d="M53.418,62.356c1.278,0,1.936.765,1.936,2.1v.263H54.111v-.347c0-.6-.239-.824-.657-.824s-.657.228-.657.824c0,1.721,2.568,2.044,2.568,4.434,0,1.338-.669,2.1-1.96,2.1s-1.959-.765-1.959-2.1V68.3h1.242v.6c0,.6.263.813.681.813s.681-.215.681-.813c0-1.721-2.569-2.043-2.569-4.433,0-1.338.657-2.1,1.936-2.1" transform="translate(-37.726 -60.862)" fill="#fff"/>
      <path id="Path_10" data-name="Path 10" d="M56.636,62.471H60.7v1.195H59.324v7.17H58.01v-7.17H56.636Z" transform="translate(-38.623 -60.882)" fill="#fff"/>
      <path id="Path_11" data-name="Path 11" d="M62.243,62.138h1.314V70.5H62.243Zm1.23-.442H62.327V60.549h1.147Z" transform="translate(-39.594 -60.549)" fill="#fff"/>
      <path id="Path_12" data-name="Path 12" d="M64.989,62.471H66.3v7.17h2.163v1.195H64.989Z" transform="translate(-40.069 -60.882)" fill="#fff"/>
      <path id="Path_13" data-name="Path 13" d="M74.04,69.294l1-6.823h1.207l-1.29,8.365H73l-1.29-8.365h1.326Z" transform="translate(-41.232 -60.882)" fill="#fff"/>
      <path id="Path_14" data-name="Path 14" d="M79.254,66h1.8v1.195h-1.8V69.64h2.271v1.2H77.94V62.471h3.585v1.2H79.254Z" transform="translate(-42.31 -60.882)" fill="#fff"/>
      <path id="Path_15" data-name="Path 15" d="M87.219,67.5l-.406.765v2.568H85.5V62.471h1.315v3.644l1.721-3.644h1.314L88.02,66.2l1.828,4.636H88.5Z" transform="translate(-43.618 -60.882)" fill="#fff"/>
      <path id="Path_16" data-name="Path 16" d="M91.483,62.138H92.8V70.5H91.483Zm1.23-.442H91.567V60.549h1.147Z" transform="translate(-44.654 -60.549)" fill="#fff"/>
      <path id="Path_17" data-name="Path 17" d="M97.01,68.41l.9-5.939h1.828v8.365H98.492v-6l-.908,6H96.341l-.98-5.915v5.915H94.214V62.471h1.828Z" transform="translate(-45.127 -60.882)" fill="#fff"/>
      <path id="Path_18" data-name="Path 18" d="M103.188,68.063l-1.661-5.593H102.9l1,3.812,1-3.812h1.254L104.5,68.063v2.773h-1.314Z" transform="translate(-46.392 -60.882)" fill="#fff"/>
      <path id="Path_19" data-name="Path 19" d="M111.245,70.836h-1.326l-.227-1.517h-1.613l-.227,1.517h-1.207l1.338-8.365h1.924Zm-3-2.653h1.267l-.633-4.23Z" transform="translate(-47.278 -60.882)" fill="#fff"/>
      <rect id="Rectangle_1" data-name="Rectangle 1" width="1.314" height="8.365" transform="translate(66.431 1.59)" fill="#fff"/>
      <path id="Path_20" data-name="Path 20" d="M119.658,62.356c1.278,0,1.936.765,1.936,2.1v.263h-1.243v-.347c0-.6-.239-.824-.657-.824s-.657.228-.657.824c0,1.721,2.568,2.044,2.568,4.434,0,1.267-.6,2.007-1.744,2.091v.382c.585,0,.884.144.884.562,0,.645-.5.728-1.207.728-.657,0-1.147-.142-1.147-.692v-.12h.885v.1a.231.231,0,0,0,.262.239c.2,0,.3-.083.3-.286,0-.227-.144-.311-.431-.311h-.119v-.609c-1.063-.131-1.6-.872-1.6-2.079V68.3h1.242v.6c0,.6.263.813.681.813s.681-.215.681-.813c0-1.721-2.569-2.043-2.569-4.433,0-1.338.657-2.1,1.936-2.1" transform="translate(-49.189 -60.862)" fill="#fff"/>
      <path id="Path_21" data-name="Path 21" d="M123.338,62.471h1.314v7.17h2.163v1.195h-3.477Z" transform="translate(-50.167 -60.882)" fill="#fff"/>
      <rect id="Rectangle_2" data-name="Rectangle 2" width="1.266" height="1.266" transform="translate(77.224 8.688)" fill="#fff"/>
      <path id="Path_22" data-name="Path 22" d="M134.892,62.356c1.278,0,1.936.765,1.936,2.1v.263h-1.243v-.347c0-.6-.239-.824-.657-.824s-.657.228-.657.824c0,1.721,2.569,2.044,2.569,4.434,0,1.338-.669,2.1-1.96,2.1s-1.96-.765-1.96-2.1V68.3h1.243v.6c0,.6.264.813.681.813s.681-.215.681-.813c0-1.721-2.569-2.043-2.569-4.433,0-1.338.657-2.1,1.936-2.1" transform="translate(-51.825 -60.862)" fill="#fff"/>
      <path id="Path_23" data-name="Path 23" d="M142.754,70.836h-1.327l-.227-1.517h-1.613l-.227,1.517h-1.207l1.339-8.365h1.924Zm-3-2.653h1.266l-.633-4.23Z" transform="translate(-52.731 -60.882)" fill="#fff"/>
      <path id="Path_24" data-name="Path 24" d="M145.624,64.778v6.058h-1.183V62.471h1.649l1.35,5.007V62.471h1.171v8.365h-1.35Z" transform="translate(-53.819 -60.882)" fill="#fff"/>
      <rect id="Rectangle_3" data-name="Rectangle 3" width="1.266" height="1.266" transform="translate(95.738 8.688)" fill="#fff"/>
      <path id="Path_25" data-name="Path 25" d="M155.092,62.471h4.063v1.195h-1.374v7.17h-1.315v-7.17h-1.374Z" transform="translate(-55.662 -60.882)" fill="#fff"/>
      <path id="Path_26" data-name="Path 26" d="M160.7,62.138h1.315V70.5H160.7Zm1.23-.442h-1.148V60.549h1.148Z" transform="translate(-56.633 -60.549)" fill="#fff"/>
      <path id="Path_27" data-name="Path 27" d="M167.236,67.7v1.111c0,1.338-.67,2.1-1.96,2.1s-1.959-.765-1.959-2.1v-4.35c0-1.338.668-2.1,1.959-2.1s1.96.765,1.96,2.1v.812h-1.243v-.9c0-.6-.262-.824-.681-.824s-.681.228-.681.824v4.518c0,.6.263.813.681.813s.681-.215.681-.813V67.7Z" transform="translate(-57.085 -60.862)" fill="#fff"/>
      <rect id="Rectangle_4" data-name="Rectangle 4" width="1.266" height="1.266" transform="translate(110.881 8.688)" fill="#fff"/>
      <path id="Path_28" data-name="Path 28" d="M173.868,62.471h1.315v7.17h2.162v1.195h-3.477Z" transform="translate(-58.911 -60.882)" fill="#fff"/>
      <path id="Path_29" data-name="Path 29" d="M177.582,62.471h4.063v1.195h-1.374v7.17h-1.315v-7.17h-1.374Z" transform="translate(-59.554 -60.882)" fill="#fff"/>
      <path id="Path_30" data-name="Path 30" d="M183.19,62.472h2.08c1.314,0,1.959.729,1.959,2.067v4.23c0,1.338-.645,2.067-1.959,2.067h-2.08Zm1.315,1.195v5.975h.741c.418,0,.669-.215.669-.813v-4.35c0-.6-.251-.812-.669-.812Z" transform="translate(-60.525 -60.882)" fill="#fff"/>
      <rect id="Rectangle_5" data-name="Rectangle 5" width="1.266" height="1.266" transform="translate(127.423 8.688)" fill="#fff"/>
      <path id="Path_31" data-name="Path 31" d="M195.6,62.356c1.278,0,1.936.765,1.936,2.1v.263H196.29v-.347c0-.6-.239-.824-.657-.824s-.657.228-.657.824c0,1.721,2.569,2.044,2.569,4.434,0,1.267-.6,2.007-1.745,2.091v.382c.585,0,.884.144.884.562,0,.645-.5.728-1.207.728-.657,0-1.147-.142-1.147-.692v-.12h.884v.1a.231.231,0,0,0,.263.239c.2,0,.3-.083.3-.286,0-.227-.144-.311-.431-.311h-.119v-.609c-1.063-.131-1.6-.872-1.6-2.079V68.3h1.243v.6c0,.6.264.813.681.813s.681-.215.681-.813c0-1.721-2.569-2.043-2.569-4.433,0-1.338.657-2.1,1.936-2.1" transform="translate(-62.33 -60.862)" fill="#fff"/>
      <path id="Path_32" data-name="Path 32" d="M198.814,62.471h4.063v1.195H201.5v7.17h-1.315v-7.17h-1.374Z" transform="translate(-63.228 -60.882)" fill="#fff"/>
      <path id="Path_33" data-name="Path 33" d="M204.422,62.138h1.315V70.5h-1.315Zm1.231-.442h-1.148V60.549h1.148Z" transform="translate(-64.199 -60.549)" fill="#fff"/>
    </g>
    <rect id="Rectangle_6" data-name="Rectangle 6" width="184.613" height="0.932" transform="translate(86.974 92.606)" fill="#fff"/>
  </g>
</svg>
