<svg width="359" height="84" viewBox="0 0 359 84" fill="none" xmlns="http://www.w3.org/2000/svg">
<path d="M52.3444 32.4061L32.7918 32.9189L32.6636 56.3821C28.9454 56.7667 8.52732 55.5807 9.55304 39.4899C10.1621 30.0662 16.6689 25.3222 27.9197 24.9697L54.1074 24.1363V16.6999C45.0042 16.2511 35.4202 15.3857 25.6118 16.187C21.8616 16.5075 18.4318 17.1486 14.6495 18.1743C-1.82594 22.7259 -4.51844 49.17 7.14903 58.2091C12.6302 62.3119 21.1564 65.4852 32.6315 65.1968C32.6315 71.4151 32.4392 77.5373 32.4392 83.7557H40.3564V65.1327L54.6843 65.0365C79.3975 62.0235 74.6857 31.9894 52.3444 32.4381V32.4061ZM55.5818 56.6705L40.3564 57.1834V41.8298C46.2543 41.3169 50.0366 41.9259 53.7548 41.8298C66.8326 41.5092 64.8773 56.7346 55.5818 56.6705ZM38.305 12.7252C42.0232 12.7252 45.0683 9.87247 45.0683 6.34659C45.0683 2.82071 42.0553 0 38.305 0C34.5547 0 31.5417 2.85276 31.5417 6.37864C31.5417 9.90452 34.5547 12.7573 38.305 12.7573V12.7252Z" fill="url(#paint0_linear_113_116)"/>
<path d="M126.58 44.0415V47.9841C126.58 50.2919 126.292 52.2792 125.747 53.946C125.17 55.5807 124.272 56.959 123.054 58.0168C121.836 59.0746 120.234 59.8438 118.311 60.3246C116.387 60.8054 114.047 61.0619 111.323 61.0619C108.598 61.0619 106.323 60.8054 104.367 60.3246C102.412 59.8438 100.809 58.9784 99.4951 57.7924C98.213 56.6064 97.2514 55.0038 96.6424 53.0164C96.0334 51.0291 95.7449 48.4969 95.7449 45.4518C95.7449 42.4067 96.0654 39.7143 96.7065 37.6949C97.3475 35.6755 98.3412 34.0728 99.6233 32.8869C100.905 31.7009 102.54 30.8996 104.495 30.4508C106.451 30.0021 108.727 29.7777 111.323 29.7777C113.919 29.7777 116.003 30.0021 117.83 30.4187C119.657 30.8354 121.163 31.5086 122.381 32.4061C123.599 33.3036 124.529 34.4895 125.202 35.9319C125.875 37.3744 126.292 39.0732 126.452 41.0605H118.407C118.278 40.163 118.086 39.4258 117.83 38.8168C117.541 38.2077 117.157 37.759 116.612 37.4064C116.067 37.0538 115.362 36.8294 114.496 36.7012C113.631 36.573 112.573 36.5089 111.291 36.5089C109.913 36.5089 108.727 36.6051 107.765 36.7974C106.803 36.9897 106.034 37.4064 105.457 38.0154C104.88 38.6244 104.431 39.5219 104.175 40.7079C103.919 41.8939 103.79 43.4645 103.79 45.4518C103.79 47.4391 103.919 48.8815 104.175 50.0675C104.431 51.2214 104.88 52.1189 105.489 52.76C106.098 53.4011 106.899 53.8178 107.861 54.0101C108.855 54.2024 110.041 54.2986 111.451 54.2986C113.983 54.2986 115.81 53.978 116.964 53.337C118.118 52.6959 118.695 51.5099 118.695 49.747V49.2662H110.842V44.0094H126.548L126.58 44.0415Z" fill="url(#paint1_linear_113_116)"/>
<path d="M130.266 60.3887V30.4508H138.312V60.3887H130.266ZM130.491 22.6618H138.12V28.0468H130.491V22.6618Z" fill="url(#paint2_linear_113_116)"/>
<path d="M141.582 60.3888V55.0359L156.999 37.15H142.415V30.4188H167.513V35.7717L152.352 53.6576H167.897V60.3888H141.582Z" fill="url(#paint3_linear_113_116)"/>
<path d="M171.199 60.3887V30.4508H195.495V36.8615H179.212V42.1503H195.303V48.561H179.212V53.946H195.495V60.3567H171.199V60.3887Z" fill="url(#paint4_linear_113_116)"/>
<path d="M207.291 60.3887H199.245V30.4508H205.496L216.682 43.4004L227.741 30.4508H233.959V60.3887H225.914V42.6311L216.586 52.8241L207.258 42.567V60.3567L207.291 60.3887Z" fill="url(#paint5_linear_113_116)"/>
<path d="M247.967 60.3887V30.4508H256.013V60.3887H247.967ZM248.192 22.6618H255.82V28.0468H248.192V22.6618Z" fill="url(#paint6_linear_113_116)"/>
<path d="M285.148 50.965C283.417 52.9203 280.789 53.8819 277.263 53.8819H268.16V60.3887H260.115V30.4508H277.167C279.026 30.4508 280.597 30.6751 281.943 31.0918C283.289 31.5085 284.379 32.1817 285.212 33.0792C286.046 33.9767 286.687 35.1306 287.104 36.573C287.52 38.0154 287.713 39.7463 287.713 41.7977C287.713 45.9647 286.847 49.0097 285.116 50.965H285.148ZM268.16 47.4712H275.244C276.718 47.4712 277.84 47.0545 278.577 46.2531C279.315 45.4518 279.699 44.0094 279.699 41.99C279.699 40.9643 279.635 40.1309 279.475 39.4578C279.315 38.7847 279.09 38.2718 278.738 37.8872C278.385 37.5025 277.936 37.2141 277.359 37.0858C276.782 36.9576 276.045 36.8615 275.18 36.8615H268.192V47.4391L268.16 47.4712Z" fill="url(#paint7_linear_113_116)"/>
<path d="M290.983 60.3887V30.4508H299.028V53.4652H315.6V60.4208H290.983V60.3887Z" fill="url(#paint8_linear_113_116)"/>
<path d="M318.164 60.3887V30.4508H326.209V60.3887H318.164ZM318.388 22.6618H326.017V28.0468H318.388V22.6618Z" fill="url(#paint9_linear_113_116)"/>
<path d="M341.435 47.7596H338.358V60.3887H330.312V30.4508H338.358V45.6441L349.032 30.4508H357.975L347.525 44.2658L359 60.4208H349.352L341.467 47.7917L341.435 47.7596Z" fill="url(#paint10_linear_113_116)"/>
<defs>
<linearGradient id="paint0_linear_113_116" x1="0.00110162" y1="41.8618" x2="71.256" y2="41.8618" gradientUnits="userSpaceOnUse">
<stop stop-color="#AC6E4B"/>
<stop offset="0.5" stop-color="#EDCE91"/>
<stop offset="1" stop-color="#AC6E4B"/>
</linearGradient>
<linearGradient id="paint1_linear_113_116" x1="428.268" y1="103.276" x2="69.0443" y2="37.7269" gradientUnits="userSpaceOnUse">
<stop stop-color="#AC6E4B"/>
<stop offset="0.5" stop-color="#EDCE91"/>
<stop offset="1" stop-color="#AC6E4B"/>
</linearGradient>
<linearGradient id="paint2_linear_113_116" x1="429.71" y1="95.4873" x2="70.4867" y2="29.9058" gradientUnits="userSpaceOnUse">
<stop stop-color="#AC6E4B"/>
<stop offset="0.5" stop-color="#EDCE91"/>
<stop offset="1" stop-color="#AC6E4B"/>
</linearGradient>
<linearGradient id="paint3_linear_113_116" x1="429.678" y1="95.6476" x2="70.4549" y2="30.0662" gradientUnits="userSpaceOnUse">
<stop stop-color="#AC6E4B"/>
<stop offset="0.5" stop-color="#EDCE91"/>
<stop offset="1" stop-color="#AC6E4B"/>
</linearGradient>
<linearGradient id="paint4_linear_113_116" x1="430.608" y1="90.551" x2="71.3842" y2="24.9696" gradientUnits="userSpaceOnUse">
<stop stop-color="#AC6E4B"/>
<stop offset="0.5" stop-color="#EDCE91"/>
<stop offset="1" stop-color="#AC6E4B"/>
</linearGradient>
<linearGradient id="paint5_linear_113_116" x1="431.665" y1="84.6853" x2="72.4416" y2="19.1039" gradientUnits="userSpaceOnUse">
<stop stop-color="#AC6E4B"/>
<stop offset="0.5" stop-color="#EDCE91"/>
<stop offset="1" stop-color="#AC6E4B"/>
</linearGradient>
<linearGradient id="paint6_linear_113_116" x1="433.493" y1="74.6846" x2="74.2693" y2="9.10307" gradientUnits="userSpaceOnUse">
<stop stop-color="#AC6E4B"/>
<stop offset="0.5" stop-color="#EDCE91"/>
<stop offset="1" stop-color="#AC6E4B"/>
</linearGradient>
<linearGradient id="paint7_linear_113_116" x1="433.364" y1="75.3256" x2="74.1404" y2="9.74423" gradientUnits="userSpaceOnUse">
<stop stop-color="#AC6E4B"/>
<stop offset="0.5" stop-color="#EDCE91"/>
<stop offset="1" stop-color="#AC6E4B"/>
</linearGradient>
<linearGradient id="paint8_linear_113_116" x1="434.198" y1="70.8382" x2="74.9745" y2="5.25675" gradientUnits="userSpaceOnUse">
<stop stop-color="#AC6E4B"/>
<stop offset="0.5" stop-color="#EDCE91"/>
<stop offset="1" stop-color="#AC6E4B"/>
</linearGradient>
<linearGradient id="paint9_linear_113_116" x1="435.768" y1="62.2799" x2="76.5455" y2="-3.30123" gradientUnits="userSpaceOnUse">
<stop stop-color="#AC6E4B"/>
<stop offset="0.5" stop-color="#EDCE91"/>
<stop offset="1" stop-color="#AC6E4B"/>
</linearGradient>
<linearGradient id="paint10_linear_113_116" x1="435.768" y1="62.1517" x2="76.5451" y2="-3.4297" gradientUnits="userSpaceOnUse">
<stop stop-color="#AC6E4B"/>
<stop offset="0.5" stop-color="#EDCE91"/>
<stop offset="1" stop-color="#AC6E4B"/>
</linearGradient>
</defs>
</svg>
